{"title":"The Cardinal (1963) Tom Tryon Eng","uid":5083261,"size":1134074364,"categoryP":"video","categoryS":"movies","magnet":"?xt=urn:btih:58fe7641a508512b120eaba75c11c7f29343d43d&amp;dn=The+Cardinal+%281963%29+Tom+Tryon+Eng&amp;tr=udp%3A%2F%2Ftracker.openbittorrent.com%3A80&amp;tr=udp%3A%2F%2Fopen.demonii.com%3A1337&amp;tr=udp%3A%2F%2Ftracker.coppersurfer.tk%3A6969&amp;tr=udp%3A%2F%2Fexodus.desync.com%3A6969","seeders":2,"leechers":1,"uploader":"johnefp","files":-1,"time":1252515828,"description":"\nTom Tryon plays the title role in this Otto Preminger version of the Henry Morton Robinson novel. In his matriculation from Monsignor to the College of Cardinals, Stephen Fermoyle (Tom Tryon) must undergo several grueling life experiences: standing up to bigots in Georgia, defying Nazis in Austria, and so on. The film boasts cameo appearances by Dorothy Gish, Cecil Kellaway, John Saxon, John Huston, Robert Morse, Burgess Meredith, Raf Vallone, Ossie Davis. Incidentally, Tryon eventually quit acting and became a popular novelist. \n\n\n &lt;a href=&quot;\nhttp://www.imdb.com/title/tt0056907/&quot; rel=&quot;nofollow&quot; target=&quot;_NEW&quot;&gt;\nhttp://www.imdb.com/title/tt0056907/&lt;/a&gt;\n\n\n\nSpan subs:\n\n\n &lt;a href=&quot;\nhttp://www.opensubtitles.org/en/subtitles/193955/the-cardinal-es&quot; rel=&quot;nofollow&quot; target=&quot;_NEW&quot;&gt;\nhttp://www.opensubtitles.org/en/subtitles/193955/the-cardinal-es&lt;/a&gt;\n\n\n\nAwards:\nNominated for 6 Oscars. Another 4 wins &amp; 5 nominations\n\n\n\nDirector:\nOtto Preminger\n\n\n\n\tTom Tryon\t ... \tStephen Fermoyle\n\tCarol Lynley\t... \tMona Fermoyle / Regina Fermoyle\n\tDorothy Gish\t... \tCelia Fermoyle\n\tMaggie McNamara\t... \tFlorrie Fermoyle\n\tBill Hayes\t... \tFrank Fermoyle\n\n\n\n Video\n      Format : MPEG-4 Visual\n      Format profile : Streaming Video@L1\n      Format settings, BVOP : Yes\n      Format settings, QPel : No\n      Format settings, GMC : No warppoints\n      Format settings, Matrix : Custom\n      Codec ID : XVID\n      Codec ID/Hint : XviD\n      Duration : 2h 54mn\n      Bit rate : 730 Kbps\n      Width : 704 pixels\n      Height : 304 pixels\n      Display aspect ratio : 2.35\n      Frame rate : 25.000 fps\n      Resolution : 24 bits\n      Colorimetry : 4:2:0\n      Scan type : Progressive\n      Bits/(Pixel*Frame) : 0.136\n      Stream size : 912 MiB (84%)\n      Writing library : XviD 50\n   Audio\n      Format : MPEG Audio\n      Format version : Version 1\n      Format profile : Layer 3\n      Codec ID : 55\n      Codec ID/Hint : MP3\n      Duration : 2h 54mn\n      Bit rate mode : Constant\n      Bit rate : 128 Kbps\n      Minimum bit rate : 128 Kbps\n      Channel(s) : 2 channels\n      Sampling rate : 48.0 KHz\n      Resolution : 16 bits\n      Stream size : 160 MiB (15%)\n      Alignment : Aligned on interleaves\n      Interleave, duration : 80 ms (2.00 video frames)\n      Interleave, preload duration : 504 ms\n      Writing library : LAME3.98r\n      Encoding settings : CBR\n      Language : English","torrent":{"xt":"urn:btih:58fe7641a508512b120eaba75c11c7f29343d43d","amp;dn":"The+Cardinal+%281963%29+Tom+Tryon+Eng","amp;tr":["udp%3A%2F%2Ftracker.openbittorrent.com%3A80","udp%3A%2F%2Fopen.demonii.com%3A1337","udp%3A%2F%2Ftracker.coppersurfer.tk%3A6969","udp%3A%2F%2Fexodus.desync.com%3A6969"],"infoHash":"58fe7641a508512b120eaba75c11c7f29343d43d","infoHashBuffer":{"type":"Buffer","data":[88,254,118,65,165,8,81,43,18,14,171,167,92,17,199,242,147,67,212,61]},"announce":[],"urlList":[]}}